<svg width="135" height="141" viewBox="0 0 135 141" fill="none" xmlns="http://www.w3.org/2000/svg">
<path d="M21 0.5H114C125.322 0.5 134.5 9.67816 134.5 21V120C134.5 131.322 125.322 140.5 114 140.5H21C9.67816 140.5 0.5 131.322 0.5 120V21C0.5 9.67816 9.67816 0.5 21 0.5Z" fill="white" stroke="black"/>
<path d="M79.1631 123.351L79.1655 123.352C82.5806 125.191 86.6337 126.1 91.3065 126.1C94.5311 126.1 97.6476 125.468 100.652 124.205L100.652 124.205L100.658 124.203C103.665 122.895 106.363 121.001 108.753 118.525C111.194 116.04 113.105 112.994 114.492 109.398C115.927 105.788 116.639 101.671 116.639 97.056C116.639 93.9393 116.163 91.3235 115.185 89.232C114.261 87.1661 113.035 85.6102 111.486 84.607C109.964 83.578 108.354 83.052 106.667 83.052C105.012 83.052 103.457 83.5203 102.007 84.441C102.034 84.2186 102.047 83.9861 102.047 83.744C102.047 81.6548 101.49 79.9909 100.296 78.8429C99.0884 77.6376 97.1098 77.1 94.5065 77.1C89.1439 77.1 84.508 78.2465 80.6194 80.562C76.7807 82.8305 73.8147 86.0167 71.7252 90.1086L71.7252 90.1086L71.7233 90.1124C69.677 94.205 68.6625 98.9777 68.6625 104.416C68.6625 108.627 69.5531 112.381 71.3478 115.664L71.3502 115.668C73.1892 118.952 75.7969 121.515 79.1631 123.351ZM97.422 102.072L97.4219 102.072L97.4264 102.085C98.066 103.918 99.112 105.737 100.552 107.543C99.9197 109.954 98.7896 111.921 97.1701 113.462C95.5437 115.007 93.7645 115.756 91.8185 115.756C90.0492 115.756 88.5669 115.237 87.343 114.212C86.1381 113.166 85.2023 111.771 84.5449 110.006C83.9266 108.232 83.6145 106.285 83.6145 104.16C83.6145 102.29 83.8844 100.395 84.4267 98.4754C85.0093 96.5206 85.8609 94.7356 86.9809 93.1176C88.1348 91.4695 89.5528 90.155 91.2369 89.1688C92.9416 88.1953 94.9433 87.7 97.2585 87.7C97.7402 87.7 98.2222 87.7261 98.7043 87.7784C98.1083 88.7443 97.6177 89.8469 97.2295 91.0821C96.7419 92.6335 96.5025 94.3922 96.5025 96.352C96.5025 98.2418 96.8103 100.149 97.422 102.072Z" fill="#3058F6" stroke="black"/>
<path d="M28.4366 124.718L28.4334 124.717C26.221 123.788 24.4585 122.409 23.1628 120.577L23.1595 120.572L23.1596 120.572C21.8523 118.679 21.215 116.333 21.215 113.568C21.215 111.912 21.4107 109.773 21.7964 107.159L21.7975 107.151L21.7976 107.151C22.2251 104.543 22.7379 101.68 23.3358 98.5624C23.9227 95.4603 24.489 92.3168 25.0347 89.1321L21.715 82.4299L21.5058 82.0077L21.9149 81.7739C24.3217 80.3986 26.6263 79.2781 28.8285 78.4145L28.8315 78.4133L28.8315 78.4133C31.1088 77.5375 33.4951 77.1 35.987 77.1C37.0633 77.1 37.999 77.279 38.7706 77.6648M28.4366 124.718L38.7706 77.6648M28.4366 124.718C30.6819 125.643 33.2014 126.1 35.987 126.1C40.2543 126.1 44.1057 125.54 47.5353 124.411L47.5353 124.411L47.5407 124.409C50.9579 123.241 53.9525 121.659 56.5184 119.658C59.0753 117.665 61.2032 115.386 62.8986 112.822C64.6305 110.267 65.9113 107.599 66.7373 104.818C67.604 102.043 68.039 99.2846 68.039 96.544C68.039 93.1071 67.3644 89.921 66.01 86.9928C64.6917 84.0499 62.6893 81.6739 60.0099 79.873C57.307 78.0563 53.9612 77.164 50.003 77.164C48.5182 77.164 46.9517 77.3168 45.3044 77.6203C43.7553 77.9056 42.1159 78.343 40.3869 78.9306M28.4366 124.718L40.3869 78.9306M38.7706 77.6648C39.4068 77.9829 39.9474 78.4051 40.3869 78.9306M38.7706 77.6648L40.3869 78.9306M46.124 113.42L46.1203 113.423C44.0464 114.968 41.4476 115.756 38.291 115.756C37.8368 115.756 37.36 115.735 36.8605 115.694C36.5218 115.666 36.183 115.628 35.8441 115.58C36.0911 113.767 36.4098 111.63 36.8003 109.17C37.2695 106.44 37.7387 103.646 38.2079 100.788C38.7201 97.8855 39.1684 95.1529 39.5529 92.5901C39.9502 90.2058 40.2739 88.1901 40.5236 86.5435C40.8538 86.49 41.1715 86.448 41.4768 86.4175C41.8888 86.3763 42.2774 86.356 42.643 86.356C45.9665 86.356 48.4051 87.516 50.0451 89.796L50.0451 89.796L50.0476 89.7994C51.7178 92.0807 52.575 95.0827 52.575 98.848C52.575 101.858 52.0318 104.651 50.9499 107.231C49.8741 109.796 48.2659 111.855 46.124 113.42Z" fill="#3058F6" stroke="black"/>
<path d="M73.3506 61.351L73.353 61.3522C76.7681 63.1912 80.8212 64.1 85.494 64.1C88.7186 64.1 91.8351 63.4678 94.8397 62.205L94.8397 62.205L94.8454 62.2025C97.8522 60.8952 100.551 59.0007 102.94 56.5247C105.381 54.0396 107.293 50.9943 108.68 47.3984C110.114 43.7884 110.826 39.6714 110.826 35.056C110.826 31.9393 110.351 29.3235 109.373 27.232C108.449 25.1661 107.222 23.6102 105.674 22.607C104.151 21.578 102.542 21.052 100.854 21.052C99.1997 21.052 97.6443 21.5203 96.1943 22.441C96.221 22.2186 96.234 21.9861 96.234 21.744C96.234 19.6548 95.6774 17.9909 94.484 16.8429C93.2759 15.6376 91.2973 15.1 88.694 15.1C83.3314 15.1 78.6955 16.2465 74.8069 18.562C70.9682 20.8305 68.0022 24.0167 65.9127 28.1086L65.9127 28.1086L65.9108 28.1124C63.8645 32.205 62.85 36.9777 62.85 42.416C62.85 46.627 63.7406 50.3809 65.5353 53.6639L65.5377 53.6683C67.3767 56.9522 69.9844 59.5149 73.3506 61.351ZM91.6095 40.0716L91.6094 40.0717L91.6139 40.0847C92.2535 41.9181 93.2995 43.7374 94.7399 45.5431C94.1072 47.9543 92.9771 49.921 91.3576 51.4615C89.7312 53.0066 87.952 53.756 86.006 53.756C84.2367 53.756 82.7544 53.2368 81.5305 52.2116C80.3256 51.1664 79.3898 49.7711 78.7324 48.0065C78.1141 46.232 77.802 44.2847 77.802 42.16C77.802 40.2899 78.0719 38.3954 78.6142 36.4754C79.1968 34.5206 80.0484 32.7356 81.1684 31.1176C82.3223 29.4695 83.7403 28.155 85.4244 27.1688C87.1291 26.1953 89.1308 25.7 91.446 25.7C91.9277 25.7 92.4097 25.7261 92.8918 25.7784C92.2958 26.7443 91.8052 27.8469 91.417 29.0821C90.9294 30.6335 90.69 32.3922 90.69 34.352C90.69 36.2418 90.9978 38.1489 91.6095 40.0716Z" fill="#3058F6" stroke="black"/>
<path d="M47.0167 17.6055C44.8821 17.1786 42.7475 16.773 40.6128 16.3888C38.4487 15.9563 36.2628 15.74 34.0555 15.74C32.2754 15.74 30.6196 16.1189 29.0959 16.8808C27.55 17.6538 26.3077 18.8565 25.3676 20.4681L25.3675 20.468L25.3624 20.4772C24.455 22.1106 24.0195 24.1861 24.0195 26.672C24.0195 27.1125 24.0414 27.7206 24.0843 28.4917C24.1295 29.3056 24.2874 30.1362 24.5547 30.9826L24.6964 31.4312L25.1528 31.3171C26.1594 31.0654 27.4253 30.8119 28.9537 30.5572L28.9537 30.5574L28.9669 30.5548C30.499 30.2569 32.0096 29.9803 33.4987 29.725C34.6956 29.5256 35.7212 29.3655 36.5765 29.2444C35.4414 35.5055 34.5643 40.5957 33.9456 44.514C33.3047 48.5729 32.9795 51.6553 32.9795 53.744C32.9795 57.1143 33.56 59.7307 34.7964 61.5166L34.8006 61.5227L46.9195 18.096M47.0167 17.6055C47.017 17.6056 47.0173 17.6057 47.0176 17.6057L46.9195 18.096M47.0167 17.6055C47.0164 17.6055 47.016 17.6054 47.0157 17.6053L46.9195 18.096M47.0167 17.6055C49.1483 18.0234 51.322 18.2757 53.538 18.3622M46.9195 18.096C49.0955 18.5227 51.3142 18.7787 53.5755 18.864M53.538 18.3622C53.5195 18.3657 53.501 18.3692 53.4826 18.3727L53.5755 18.864M53.538 18.3622C53.5568 18.3629 53.5756 18.3637 53.5944 18.3644L53.5755 18.864M53.538 18.3622L53.5755 18.864M64.0681 16.7917C64.0732 16.8105 64.0783 16.8293 64.0833 16.8481C64.0837 16.8479 64.0842 16.8478 64.0846 16.8477L64.0681 16.7917ZM63.4075 26.745C63.4084 26.7436 63.4093 26.7422 63.4101 26.7407L62.9835 26.48L63.4049 26.7492C63.4057 26.7478 63.4066 26.7464 63.4075 26.745ZM59.35 30.3274C59.3508 30.327 59.3515 30.3267 59.3523 30.3263L59.1435 29.872L59.3477 30.3284C59.3485 30.3281 59.3493 30.3277 59.35 30.3274ZM51.2257 31.3701C51.2552 31.2229 51.2846 31.0762 51.3138 30.9301L50.8235 30.832L50.7782 31.33C50.9253 31.3433 51.0745 31.3567 51.2257 31.3701ZM50.0984 36.9432C50.0987 36.9416 50.099 36.9399 50.0993 36.9383L49.6075 36.848L50.0974 36.948C50.0977 36.9464 50.0981 36.9448 50.0984 36.9432ZM48.1177 48.1885C48.1179 48.1865 48.1182 48.1846 48.1185 48.1827L47.6235 48.112L48.1167 48.1942C48.117 48.1923 48.1173 48.1904 48.1177 48.1885ZM48.2405 56.9032C48.2399 56.901 48.2394 56.8988 48.2389 56.8966L47.7515 57.008L48.2418 56.91C48.2413 56.9077 48.2409 56.9055 48.2405 56.9032Z" fill="#3058F6" stroke="black"/>
</svg>
